<mxfile host="app.diagrams.net" modified="2023-06-21T14:55:12.292Z" agent="Mozilla/5.0 (X11; Linux x86_64; rv:109.0) Gecko/20100101 Firefox/114.0" version="21.5.0" etag="wB24-AR_5J2dbf1H053T" type="github">
  <diagram name="Page-1" id="g_C4EWGI3Qiafk0i0yi8">
    <mxGraphModel>
      <root>
        <mxCell id="0" />
        <mxCell id="1" parent="0" />
      </root>
    </mxGraphModel>
  </diagram>
</mxfile>
